<?xml version="1.0" encoding="utf-8"?>
<!-- Generator: Adobe Illustrator 26.2.1, SVG Export Plug-In . SVG Version: 6.00 Build 0)  -->
<svg version="1.1" id="Capa_1" xmlns="http://www.w3.org/2000/svg" xmlns:xlink="http://www.w3.org/1999/xlink" x="0px" y="0px"
	 viewBox="0 0 30 30" style="enable-background:new 0 0 30 30;" xml:space="preserve">
<style type="text/css">
	.st0{fill:#E6334E;}
	.st1{fill:#E5E5E5;}
</style>
<path class="st0" d="M4.1,29.9h21.8c2.2,0,4-1.8,4-4V4.1c0-2.2-1.8-4-4-4H4.1c-2.2,0-4,1.8-4,4v21.8C0.1,28.1,1.9,29.9,4.1,29.9z"/>
<g>
	<path class="st1" d="M23.9,12.6c0.7,0.4,1.3,1,1.7,1.8c0.4,0.8,0.6,1.6,0.6,2.6s-0.2,1.8-0.6,2.6c-0.4,0.8-1,1.3-1.7,1.8
		c-0.7,0.4-1.5,0.6-2.4,0.6c-1.1,0-2-0.3-2.7-1v4.3h-3.3v-13h3.2v0.9c0.6-0.8,1.5-1.1,2.8-1.1C22.4,12,23.3,12.3,23.9,12.6z
		 M22.3,18.6c0.4-0.4,0.5-1,0.5-1.7c0-0.7-0.2-1.2-0.5-1.7c-0.4-0.4-0.8-0.6-1.4-0.6c-0.6,0-1.1,0.2-1.4,0.6s-0.5,1-0.5,1.7
		s0.2,1.2,0.5,1.7c0.4,0.4,0.8,0.6,1.4,0.6C21.4,19.2,22,19,22.3,18.6z"/>
	<path class="st1" d="M14.9,8.2h-0.8v11l0,0v2.5H11v-1c-0.4,0.4-0.8,0.7-1.3,0.9c-0.5,0.2-1,0.3-1.5,0.3c-1.2,0-2.2-0.4-3-1.1
		S4.1,19,4.1,17.6v-5.3h3.3v4.8c0,0.7,0.2,1.2,0.4,1.5C8.2,18.9,8.6,19,9,19c0.5,0,1-0.2,1.3-0.5s0.5-0.9,0.5-1.7V8.2H9.9
		C9.6,8,9.8,7.7,9.8,7.7l0.7-0.8l1.8-2c0.2-0.3,0.4-0.1,0.4-0.1l0.3,0.3l2.3,2.6C15.4,8.2,14.9,8.2,14.9,8.2z"/>
</g>
</svg>
