<?xml version="1.0" encoding="utf-8"?>
<!-- Generator: Adobe Illustrator 26.0.3, SVG Export Plug-In . SVG Version: 6.00 Build 0)  -->
<svg version="1.1" id="Capa_1" xmlns="http://www.w3.org/2000/svg" xmlns:xlink="http://www.w3.org/1999/xlink" x="0px" y="0px"
	 viewBox="0 0 30 30" style="enable-background:new 0 0 30 30;" xml:space="preserve">
<style type="text/css">
	.st0{fill:#E6334E;}
	.st1{fill:#FFFFFF;}
	.st2{display:none;}
	.st3{display:inline;fill:#FFFFFF;}
	.st4{display:inline;}
	.st5{fill:#202020;}
	.st6{fill:#EAEAEA;}
	.st7{fill:#120F46;}
	.st8{fill:#161616;}
	.st9{fill:#D34452;}
</style>
<g>
	<path class="st6" d="M26.5,12c0.9,0.5,1.7,1.3,2.2,2.3c0.5,1,0.8,2.1,0.8,3.4c0,1.3-0.3,2.4-0.8,3.4c-0.5,1-1.3,1.7-2.2,2.3
		c-0.9,0.5-2,0.8-3.1,0.8c-1.5,0-2.6-0.4-3.5-1.3v5.6h-4.4V11.4h4.2v1.2c0.8-1,2-1.4,3.7-1.4C24.5,11.2,25.6,11.5,26.5,12z
		 M24.4,19.8c0.5-0.5,0.7-1.3,0.7-2.2c0-0.9-0.2-1.6-0.7-2.2c-0.5-0.5-1.1-0.8-1.9-0.8c-0.8,0-1.4,0.3-1.9,0.8
		c-0.5,0.5-0.7,1.3-0.7,2.2c0,0.9,0.2,1.6,0.7,2.2c0.5,0.5,1.1,0.8,1.9,0.8C23.2,20.6,23.9,20.3,24.4,19.8z"/>
	<path class="st6" d="M14.6,6.1h-1v14.5c0,0,0,0,0,0v3.3H9.5v-1.3c-0.5,0.5-1,0.9-1.7,1.2c-0.6,0.3-1.3,0.4-2,0.4
		c-1.6,0-2.9-0.5-3.9-1.4c-1-0.9-1.4-2.4-1.4-4.3v-7h4.4v6.3c0,0.9,0.2,1.6,0.5,2c0.4,0.4,0.9,0.6,1.5,0.6c0.7,0,1.3-0.2,1.7-0.7
		c0.4-0.5,0.7-1.2,0.7-2.2V6.1H8.1C7.6,5.9,7.9,5.5,7.9,5.5l0.9-1l2.3-2.6c0.3-0.4,0.5-0.1,0.5-0.1L12,2.2l3,3.4
		C15.3,6.1,14.6,6.1,14.6,6.1z"/>
</g>
</svg>
