<?xml version="1.0" encoding="utf-8"?>
<!-- Generator: Adobe Illustrator 26.0.3, SVG Export Plug-In . SVG Version: 6.00 Build 0)  -->
<svg version="1.1" id="Capa_1" xmlns="http://www.w3.org/2000/svg" xmlns:xlink="http://www.w3.org/1999/xlink" x="0px" y="0px"
	 viewBox="0 0 124 32.1" style="enable-background:new 0 0 124 32.1;" xml:space="preserve">
<style type="text/css">
	.st0{fill:#E6334E;}
</style>
<g>
	<path class="st0" d="M60.9,13.7c1.2,1.3,1.7,3.1,1.6,4.9v8.3h-5.1v-7.5c0.1-0.8-0.1-1.6-0.6-2.3c-0.4-0.5-1-0.8-1.6-0.7
		c-0.7,0-1.4,0.3-1.9,0.8c-0.5,0.7-0.8,1.6-0.7,2.5v7.2h-5.1v-7.5c0-2-0.7-3-2.2-3c-0.7,0-1.4,0.3-1.9,0.8c-0.5,0.7-0.8,1.6-0.7,2.5
		v7.2h-5.1V12.3h4.9v1.5c0.5-0.6,1.2-1,1.9-1.3c0.8-0.3,1.6-0.5,2.4-0.4c0.9,0,1.9,0.2,2.7,0.6c0.8,0.4,1.5,1,2,1.7
		c0.6-0.7,1.3-1.3,2.2-1.7c0.9-0.4,1.9-0.6,2.9-0.6C58.2,12,59.7,12.6,60.9,13.7z"/>
	<path class="st0" d="M80.7,20.9H70.1c0.2,0.7,0.6,1.3,1.2,1.7c0.7,0.4,1.5,0.6,2.3,0.6c0.6,0,1.2-0.1,1.8-0.2
		c0.6-0.2,1.1-0.6,1.6-1l2.7,2.8c-1.6,1.7-3.9,2.5-6.2,2.4c-1.6,0-3.1-0.3-4.5-1c-2.5-1.2-4.1-3.8-4.1-6.6c-0.1-2.7,1.5-5.3,3.9-6.5
		c1.3-0.7,2.7-1,4.1-1c1.4,0,2.8,0.3,4,0.9c1.2,0.6,2.1,1.5,2.8,2.6c0.7,1.2,1,2.6,1,4C80.8,19.6,80.8,20.1,80.7,20.9z M71.1,16.4
		c-0.5,0.5-0.9,1.1-1,1.8h6c-0.3-1.7-1.9-2.8-3.6-2.5C71.9,15.8,71.5,16.1,71.1,16.4z"/>
	<path class="st0" d="M98.7,7v20h-4.9v-1.5c-1.1,1.2-2.7,1.8-4.3,1.7c-1.3,0-2.5-0.3-3.6-0.9c-1.1-0.6-2-1.5-2.6-2.6
		c-0.7-1.2-1-2.6-1-4c0-1.4,0.3-2.8,1-4c0.6-1.1,1.5-2,2.6-2.6c1.1-0.6,2.4-0.9,3.6-0.9c1.5-0.1,2.9,0.5,4,1.5V7H98.7z M92.8,22.2
		c0.6-0.7,0.9-1.6,0.9-2.6c0.1-0.9-0.2-1.8-0.8-2.5c-0.6-0.6-1.4-0.9-2.2-0.9c-0.8,0-1.6,0.3-2.2,0.9c-0.6,0.7-0.9,1.6-0.9,2.5
		c-0.1,0.9,0.3,1.9,0.9,2.6c1.1,1.2,3,1.3,4.2,0.1C92.7,22.3,92.7,22.2,92.8,22.2z"/>
	<path class="st0" d="M102.2,9.9c-1.1-1-1.2-2.6-0.2-3.7c0.1-0.1,0.1-0.1,0.2-0.2c0.6-0.5,1.4-0.8,2.3-0.8c0.8,0,1.6,0.2,2.3,0.7
		c0.6,0.5,0.9,1.2,0.9,1.9c0,0.8-0.3,1.5-0.9,2c-0.6,0.5-1.4,0.8-2.3,0.8C103.7,10.8,102.8,10.5,102.2,9.9z M101.9,12.3h5.1v14.6
		h-5.1L101.9,12.3z"/>
	<path class="st0" d="M122.1,13.8c1.4,1.3,2.1,3.2,1.9,5.1v8.1h-4.8V25c-0.7,1.4-2.2,2.1-4.3,2.1c-1,0-2-0.2-2.9-0.6
		c-0.8-0.3-1.4-0.9-1.9-1.6c-0.4-0.7-0.6-1.5-0.6-2.3c-0.1-1.3,0.5-2.5,1.6-3.2c1.5-0.9,3.2-1.3,4.9-1.1h2.9
		c-0.1-1.5-1.1-2.3-3.1-2.3c-0.7,0-1.4,0.1-2.1,0.3c-0.7,0.2-1.3,0.5-1.8,0.9l-1.7-3.5c0.9-0.6,1.9-1,2.9-1.2
		c1.1-0.3,2.3-0.4,3.5-0.4C118.5,12,120.5,12.5,122.1,13.8z M117.9,23.5c0.5-0.3,0.8-0.7,1-1.3V21h-2.2c-1.5,0-2.2,0.5-2.2,1.5
		c0,0.4,0.2,0.8,0.5,1.1c0.4,0.3,0.9,0.4,1.4,0.4C116.9,24,117.5,23.8,117.9,23.5z"/>
	<path class="st0" d="M31.6,12.4c1.1,0.6,2,1.6,2.7,2.7c0.7,1.3,1,2.7,1,4.1c0,1.4-0.3,2.8-1,4.1c-0.6,1.1-1.6,2-2.7,2.7
		c-1.1,0.6-2.4,1-3.8,1c-1.6,0.1-3.1-0.5-4.2-1.6v6.7h-5.3V11.7h5v1.5c1.1-1.2,2.8-1.9,4.5-1.8C29.1,11.4,30.4,11.8,31.6,12.4z
		 M29,21.9c0.6-0.7,0.9-1.7,0.9-2.6c0.1-1-0.3-1.9-0.9-2.6c-1.2-1.3-3.3-1.3-4.5,0c0,0,0,0,0,0c-0.6,0.7-0.9,1.7-0.9,2.6
		c-0.1,1,0.3,1.9,0.9,2.6C25.7,23.1,27.7,23.1,29,21.9C29,21.9,29,21.9,29,21.9z"/>
	<path class="st0" d="M17.1,5.3H16v17.4c0,0,0,0,0,0v4h-5v-1.6c-0.6,0.6-1.2,1.1-2,1.4C8.2,26.9,7.3,27,6.4,27
		c-1.7,0.1-3.4-0.5-4.7-1.7C0.5,23.9-0.1,22,0,20.1v-8.4h5.3v7.6c-0.1,0.9,0.2,1.7,0.6,2.5c0.5,0.5,1.2,0.8,1.9,0.8
		c0.8,0,1.5-0.3,2-0.9c0.6-0.8,0.9-1.7,0.8-2.6V5.3H9.2C8.7,5.1,9,4.6,9,4.6l1.1-1.3l2.8-3.1c0.3-0.4,0.6-0.2,0.6-0.2L14,0.6
		l3.6,4.1C17.9,5.3,17.1,5.3,17.1,5.3z"/>
</g>
</svg>
